# AST/ASF file generated using VICON BodyLanguage
# -----------------------------------------------
:version 1.10
:name VICON
:units
  mass 1.0
  length 0.45
  angle deg
:documentation
   .ast/.asf automatically generated from VICON data using
   VICON BodyBuilder and BodyLanguage model FoxedUp or BRILLIANT.MOD
:root
   order TX TY TZ RX RY RZ
   axis XYZ
   position 0 0 0  
   orientation 0 0 0 
:bonedata
  begin
     id 1 
     name lhipjoint
     direction 0.700308 -0.549349 0.455834 
     length 2.59063 
     axis 0 0 0  XYZ
  end
  begin
     id 2 
     name lfemur
     direction 0.34202 -0.939693 0  
     length 6.31066  
     axis 0 0 20  XYZ
    dof rx ry rz
    limits (-160.0 20.0)
           (-70.0 70.0)
           (-60.0 70.0)
  end
  begin
     id 3 
     name ltibia
     direction 0.34202 -0.939693 0   
     length 7.36093   
     axis 0 0 20   XYZ
    dof rx
    limits (-10.0 170.0)
  end
  begin
     id 4 
     name lfoot
     direction 0.0905332 -0.248738 0.96433   
     length 2.0233   
     axis -90 7.62852e-016 20   XYZ
    dof rx rz
    limits (-45.0 90.0)
           (-70.0 20.0)
  end
  begin
     id 5 
     name ltoes
     direction 1.53573e-011 -4.21855e-011 1   
     length 1.01524   
     axis -90 7.62852e-016 20   XYZ
    dof rx
    limits (-90.0 20.0)
  end
  begin
     id 6 
     name rhipjoint
     direction -0.61416 -0.607328 0.503944   
     length 2.34332  
     axis 0 0 0  XYZ 
  end
  begin
     id 7 
     name rfemur
     direction -0.34202 -0.939693 0   
     length 6.58548   
     axis 0 0 -20   XYZ
    dof rx ry rz
    limits (-160.0 20.0)
           (-70.0 70.0)
           (-70.0 60.0)
  end
  begin
     id 8 
     name rtibia
     direction -0.34202 -0.939693 0   
     length 7.20707   
     axis 0 0 -20   XYZ
    dof rx
    limits (-10.0 170.0)
 end
 begin
     id 9 
     name rfoot
     direction -0.136772 -0.375778 0.916561   
     length 1.92184  
     axis -90 -7.62852e-016 -20   XYZ
    dof rx rz
    limits (-45.0 90.0)
           (-20.0 70.0)
  end
  begin
     id 10 
     name rtoes
     direction -1.53535e-011 -4.21828e-011 1   
     length 0.951089   
     axis -90 -7.62852e-016 -20   XYZ
    dof rx
    limits (-90.0 20.0)
  end
  begin
     id 11 
     name lowerback
     direction -0.0444974 0.988086 -0.147332   
     length 1.9609   
     axis 0 0 0   XYZ
    dof rx ry rz
    limits (-20.0 45.0)
           (-30.0 30.0)
           (-30.0 30.0)
  end
  begin
     id 12 
     name upperback
     direction 0.00613146 0.999513 0.0306081   
     length 1.94944   
     axis 0 0 0   XYZ
    dof rx ry rz
    limits (-20.0 45.0)
           (-30.0 30.0)
           (-30.0 30.0)
  end
  begin
     id 13 
     name thorax
     direction 0.0254621 0.994518 0.101418   
     length 2.0119   
     axis 0 0 0   XYZ
    dof rx ry rz
    limits (-20.0 45.0)
           (-30.0 30.0)
           (-30.0 30.0)
  end
  begin
     id 14 
     name lowerneck
     direction 0.0168698 0.977854 0.208608   
     length 1.6375   
     axis 0 0 0   XYZ
    dof rx ry rz
    limits (-20.0 45.0)
           (-30.0 30.0)
           (-30.0 30.0)
  end
  begin
     id 15 
     name upperneck
     direction -0.0283988 0.989338 -0.142843   
     length 1.6851   
     axis 0 0 0   XYZ
    dof rx ry rz
    limits (-20.0 45.0)
           (-30.0 30.0)
           (-30.0 30.0)
  end
  begin
     id 16
     name head
     direction -0.0129422 0.99741 -0.0707489  
     length 1.69029  
     axis 0 0 0   XYZ
    dof rx ry rz
    limits (-20.0 45.0)
           (-30.0 30.0)
           (-30.0 30.0)
  end
  begin
     id 17 
     name lclavicle
     direction 0.820295 0.564628 -0.0911715  
     length 3.16484  
     axis 0 0 0   XYZ
    dof ry rz
    limits (-20.0 10.0)
           (0.0 20.0)
  end
  begin
     id 18 
     name lhumerus
     direction 1 -4.48969e-011 1.00186e-027   
     length 5.17853   
     axis 180 -30 -90   XYZ
    dof rx ry rz
    limits (-60.0 90.0)
           (-90.0 90.0)
           (-90.0 90.0)
  end
  begin
     id 19
     name lradius
     direction 1 -4.48966e-011 -1.52922e-027   
     length 3.40399   
     axis 180 -30 -90   XYZ
    dof rx
    limits (-10.0 170.0)
  end
  begin
     id 20
     name lwrist
     direction 1 -4.48981e-011 -3.80893e-027   
     length 1.70199   
     axis 1.1049e-015 90 90   XYZ
    dof ry
    limits (-180.0 0.0)
 end
  begin
     id 21 
     name lhand
     direction 1 -4.48957e-011 -7.61786e-027   
     length 0.708964   
     axis 4.86085e-015 90 90   XYZ
    dof rx rz
    limits (-90.0 90.0)
           (-45.0 45.0)
  end
  begin
     id 22 
     name lfingers
     direction 1 -4.48929e-011 -1.52357e-026   
     length 0.571585   
     axis 9.7217e-015 90 90   XYZ
    dof rx
    limits (0.0 90.0)
  end
  begin
     id 23
     name lthumb
     direction 0.707107 -6.34905e-011 0.707107   
     length 0.820685   
     axis -90 45 2.85299e-015   XYZ
    dof rx rz
    limits (-45.0 45.0)
           (-45.0 45.0)
  end
  begin
     id 24 
     name rclavicle
     direction -0.858602 0.463947 -0.218075   
     length 3.35137  
     axis 0 0 0   XYZ 
    dof ry rz
    limits (-10.0 20.0)
           (-20.0 0.0)
  end
  begin
     id 25 
     name rhumerus
     direction -1 -4.48969e-011 -1.98511e-027  
     length 5.42351   
     axis 180 30 90   XYZ
    dof rx ry rz
    limits (-90.0 60.0)
           (-90.0 90.0)
           (-90.0 90.0)
  end
  begin
     id 26 
     name rradius
     direction -1 -4.48961e-011 -2.82624e-027   
     length 3.42066   
     axis 180 30 90   XYZ
    dof rx
    limits (-10.0 170.0)
  end
  begin
     id 27 
     name rwrist
     direction -1 -4.48966e-011 -3.80893e-027   
     length 1.71033   
     axis 1.1049e-015 -90 -90   XYZ
    dof ry
    limits (-180.0 0.0)
  end
  begin
     id 28
     name rhand
     direction -1 -4.48964e-011 -7.61786e-027   
     length 0.743608   
     axis 4.86085e-015 -90 -90   XYZ
    dof rx rz
    limits (-90.0 90.0)
           (-45.0 45.0)
  end
  begin
     id 29
     name rfingers
     direction -1 -4.48961e-011 -1.52357e-026   
     length 0.599516   
     axis 9.7217e-015 -90 -90   XYZ
    dof rx
    limits (0.0 90.0)
  end
  begin
     id 30
     name rthumb
     direction -0.707107 -6.34913e-011 0.707107   
     length 0.860789   
     axis -90 -45 -2.85299e-015   XYZ
    dof rx rz
    limits (-45.0 45.0)
           (-45.0 45.0)
  end
:hierarchy
  begin
    root lhipjoint rhipjoint lowerback
    lhipjoint lfemur
    lfemur ltibia
    ltibia lfoot
    lfoot ltoes
    rhipjoint rfemur
    rfemur rtibia
    rtibia rfoot
    rfoot rtoes
    lowerback upperback
    upperback thorax
    thorax lowerneck lclavicle rclavicle
    lowerneck upperneck
    upperneck head
    lclavicle lhumerus
    lhumerus lradius
    lradius lwrist
    lwrist lhand lthumb
    lhand lfingers
    rclavicle rhumerus
    rhumerus rradius
    rradius rwrist
    rwrist rhand rthumb
    rhand rfingers
  end

#!OML:ASF E:\mmandel\Project 1\Capture day 1\Session 2\Subject.ASF
:FULLY-SPECIFIED
:DEGREES
104
root -4.90076 2.9564 0.188838 134.111 -3.39082 -91.103
lowerback 35.0435 -2.34933 -4.33796
upperback 6.7822 -5.06277 2.27594
thorax -9.66356 -2.64451 6.74453
lowerneck -19.0628 -5.99983 -13.1279
upperneck 26.4403 -1.7266 -13.6477
head 12.2432 -4.11435 -3.38524
rclavicle 0 1.44715e-013
rhumerus 31.601 55.8907 -90.2815
rradius 51.4351
rwrist -31.2933
rhand -35.7437 38.9994
rfingers 7.12502
rthumb -8.86247 9.20553
lclavicle 0 1.44715e-013
lhumerus 55.6424 -8.26595 49.4951
lradius 25.6716
lwrist -37.4356
lhand -3.22855 -5.26697
lfingers 7.12502
lthumb 22.4946 23.4428
rfemur -67.0225 8.71543 28.5545
rtibia 70.8284
rfoot -8.34377 -12.3331
rtoes -29.4439
lfemur 3.2153 -3.63342 -27.2392
ltibia 21.7867
lfoot 12.9527 3.04887
ltoes 10.3048
105
root -4.89813 2.9573 0.187015 134.129 -3.41751 -91.1023
lowerback 35.0641 -2.34786 -4.36698
upperback 6.75764 -5.06834 2.28156
thorax -9.69527 -2.64276 6.77066
lowerneck -18.9884 -6.02275 -13.1891
upperneck 26.2682 -1.79147 -13.5212
head 12.1583 -4.11467 -3.32111
rclavicle 1.90833e-014 -1.1609e-013
rhumerus 31.5383 55.8844 -90.3343
rradius 51.4506
rwrist -31.2376
rhand -35.7954 38.9323
rfingers 7.12502
rthumb -8.91233 9.14056
lclavicle 1.90833e-014 -1.1609e-013
lhumerus 55.5909 -8.23367 49.5952
lradius 25.7244
lwrist -37.6007
lhand -3.07334 -5.33102
lfingers 7.12502
lthumb 22.6436 23.3607
rfemur -67.0594 8.69583 28.5481
rtibia 70.8472
rfoot -8.28595 -12.3231
rtoes -29.4177
lfemur 3.08515 -3.6483 -27.2707
ltibia 21.973
lfoot 12.9056 3.07009
ltoes 10.2459
106
root -4.89863 2.95773 0.18783 134.152 -3.42029 -91.063
lowerback 35.0074 -2.32081 -4.40504
upperback 6.77796 -5.03928 2.36241
thorax -9.6467 -2.63385 6.86282
lowerneck -18.895 -6.09082 -13.2868
upperneck 26.2075 -1.88192 -13.5401
head 12.1181 -4.15768 -3.31982
rclavicle 3.81667e-014 -6.20208e-014
rhumerus 31.6222 55.8916 -90.168
rradius 51.4588
rwrist -31.2847
rhand -35.7214 38.7882
rfingers 7.12502
rthumb -8.841 8.99343
lclavicle 3.81667e-014 -6.20208e-014
lhumerus 55.6177 -8.15971 49.7737
lradius 25.732
lwrist -37.7542
lhand -2.87273 -5.31994
lfingers 7.12502
lthumb 22.8361 23.3481
rfemur -67.1009 8.68467 28.5549
rtibia 70.863
rfoot -8.29326 -12.3103
rtoes -29.3527
lfemur 2.92669 -3.6325 -27.2701
ltibia 22.1037
lfoot 13.2615 3.11566
ltoes 9.78664
107
root -4.90014 2.95722 0.188344 134.166 -3.41873 -91.0524
lowerback 34.9551 -2.30424 -4.43926
upperback 6.79806 -5.02527 2.40747
thorax -9.60089 -2.631 6.92018
lowerneck -18.9745 -6.08596 -13.2452
upperneck 26.2415 -1.85275 -13.6336
head 12.1477 -4.1592 -3.36433
rclavicle -4.13472e-014 2.8784e-013
rhumerus 31.7358 55.9327 -90.0107
rradius 51.4541
rwrist -31.3648
rhand -35.6607 38.778
rfingers 7.12502
rthumb -8.78237 8.98073
lclavicle -4.13472e-014 2.8784e-013
lhumerus 55.6436 -8.08445 49.924
lradius 25.716
lwrist -37.9099
lhand -2.79543 -5.33222
lfingers 7.12502
lthumb 22.9103 23.3267
rfemur -67.1177 8.68919 28.5421
rtibia 70.8792
rfoot -8.40315 -12.2604
rtoes -29.1409
lfemur 2.90914 -3.57887 -27.2543
ltibia 22.0872
lfoot 13.7465 3.45241
ltoes 10.7843
108
root -4.89887 2.95728 0.185522 134.18 -3.44849 -91.0902
lowerback 34.9395 -2.29049 -4.46275
upperback 6.78177 -5.01628 2.38198
thorax -9.61422 -2.6236 6.90201
lowerneck -19.0215 -6.07587 -13.1418
upperneck 26.3785 -1.82325 -13.753
head 12.2101 -4.16386 -3.43331
rclavicle 2.22639e-014 -2.13097e-013
rhumerus 31.7484 55.9217 -89.9624
rradius 51.4769
rwrist -31.3599
rhand -35.793 38.7597
rfingers 7.12502
rthumb -8.91007 8.9678
lclavicle 2.22639e-014 -2.13097e-013
lhumerus 55.6812 -8.11676 49.9949
lradius 25.6807
lwrist -37.9742
lhand -2.84514 -5.33648
lfingers 7.12502
lthumb 22.8626 23.3283
rfemur -67.1368 8.69084 28.4998
rtibia 70.9002
rfoot -8.46958 -12.2186
rtoes -29.1128
lfemur 2.98096 -3.4963 -27.2612
ltibia 21.9953
lfoot 13.5282 3.42865
ltoes 11.1354
